<svg width="96" height="96" viewBox="0 0 96 96" fill="none" xmlns="http://www.w3.org/2000/svg" role="img" aria-label="Shopee">
  <rect width="96" height="96" rx="24" fill="#EE4D2D"/>
  <path d="M27 36.5H69L65.5 76H30.5L27 36.5Z" fill="white"/>
  <path d="M37 38V32.5C37 25.6 42 20 48 20C54 20 59 25.6 59 32.5V38" stroke="white" stroke-width="6" stroke-linecap="round"/>
  <path d="M55.5 47.5C53.7 45.8 51.2 44.8 48.1 44.8C43.2 44.8 39.8 47.2 39.8 50.9C39.8 59.1 56.6 55.5 56.6 65.7C56.6 70 52.9 72.9 47.6 72.9C43.7 72.9 40.2 71.5 37.8 69.2" stroke="#EE4D2D" stroke-width="5" stroke-linecap="round"/>
</svg>
